<mxfile host="Electron" agent="Mozilla/5.0 (X11; Linux x86_64) AppleWebKit/537.36 (KHTML, like Gecko) draw.io/24.7.17 Chrome/128.0.6613.36 Electron/32.0.1 Safari/537.36" version="24.7.17">
  <diagram id="6a731a19-8d31-9384-78a2-239565b7b9f0" name="Page-1">
    <mxGraphModel dx="1195" dy="-98" grid="1" gridSize="10" guides="1" tooltips="1" connect="1" arrows="1" fold="1" page="1" pageScale="1" pageWidth="1169" pageHeight="827" background="none" math="0" shadow="0">
      <root>
        <mxCell id="0" />
        <mxCell id="1" parent="0" />
        <mxCell id="oD_RKtwGpoUrRHYGnKVT-1779" value="LemonLDAP::NG" style="rounded=1;whiteSpace=wrap;html=1;shadow=0;labelBackgroundColor=none;strokeColor=none;strokeWidth=3;fillColor=#2F5B7C;fontFamily=Helvetica;fontSize=16;fontColor=#FFFFFF;align=center;fontStyle=1;spacing=5;arcSize=7;perimeterSpacing=2;" vertex="1" parent="1">
          <mxGeometry x="1190" y="960" width="150" height="70" as="geometry" />
        </mxCell>
        <mxCell id="oD_RKtwGpoUrRHYGnKVT-1780" value="Keycloak" style="rounded=1;whiteSpace=wrap;html=1;shadow=0;labelBackgroundColor=none;strokeColor=none;strokeWidth=3;fillColor=#2F5B7C;fontFamily=Helvetica;fontSize=16;fontColor=#FFFFFF;align=center;fontStyle=1;spacing=5;arcSize=7;perimeterSpacing=2;" vertex="1" parent="1">
          <mxGeometry x="1190" y="1060" width="150" height="70" as="geometry" />
        </mxCell>
        <mxCell id="oD_RKtwGpoUrRHYGnKVT-1781" value="FusionDirectory" style="rounded=1;whiteSpace=wrap;html=1;shadow=0;labelBackgroundColor=none;strokeColor=none;strokeWidth=3;fillColor=#1699d3;fontFamily=Helvetica;fontSize=14;fontColor=#FFFFFF;align=center;spacing=5;fontStyle=1;arcSize=7;perimeterSpacing=2;" vertex="1" parent="1">
          <mxGeometry x="290" y="890" width="350" height="60" as="geometry" />
        </mxCell>
        <mxCell id="oD_RKtwGpoUrRHYGnKVT-1782" value="Actor" style="shape=umlActor;verticalLabelPosition=bottom;verticalAlign=top;html=1;outlineConnect=0;" vertex="1" parent="1">
          <mxGeometry x="80" y="920" width="30" height="60" as="geometry" />
        </mxCell>
        <mxCell id="oD_RKtwGpoUrRHYGnKVT-1791" style="edgeStyle=orthogonalEdgeStyle;rounded=0;orthogonalLoop=1;jettySize=auto;html=1;" edge="1" parent="1" source="oD_RKtwGpoUrRHYGnKVT-1783" target="oD_RKtwGpoUrRHYGnKVT-1779">
          <mxGeometry relative="1" as="geometry" />
        </mxCell>
        <mxCell id="oD_RKtwGpoUrRHYGnKVT-1792" value="Diffuse / importe / compare" style="edgeStyle=orthogonalEdgeStyle;rounded=0;orthogonalLoop=1;jettySize=auto;html=1;exitX=1;exitY=0.5;exitDx=0;exitDy=0;entryX=0;entryY=0.5;entryDx=0;entryDy=0;" edge="1" parent="1" source="oD_RKtwGpoUrRHYGnKVT-1783" target="oD_RKtwGpoUrRHYGnKVT-1780">
          <mxGeometry x="-0.5039" relative="1" as="geometry">
            <Array as="points">
              <mxPoint x="1100" y="995" />
              <mxPoint x="1100" y="1095" />
            </Array>
            <mxPoint as="offset" />
          </mxGeometry>
        </mxCell>
        <mxCell id="oD_RKtwGpoUrRHYGnKVT-1783" value="Service &quot;access&quot;" style="rounded=1;whiteSpace=wrap;html=1;shadow=0;labelBackgroundColor=none;strokeColor=none;strokeWidth=3;fillColor=#f8cecc;fontFamily=Helvetica;fontSize=14;align=center;spacing=5;arcSize=7;perimeterSpacing=2;" vertex="1" parent="1">
          <mxGeometry x="470" y="980" width="150" height="30" as="geometry" />
        </mxCell>
        <mxCell id="oD_RKtwGpoUrRHYGnKVT-1800" value="Alimente" style="edgeStyle=orthogonalEdgeStyle;rounded=0;orthogonalLoop=1;jettySize=auto;html=1;entryX=0;entryY=0.5;entryDx=0;entryDy=0;" edge="1" parent="1" source="oD_RKtwGpoUrRHYGnKVT-1784" target="oD_RKtwGpoUrRHYGnKVT-1799">
          <mxGeometry relative="1" as="geometry">
            <Array as="points">
              <mxPoint x="780" y="1025" />
              <mxPoint x="780" y="1185" />
            </Array>
          </mxGeometry>
        </mxCell>
        <mxCell id="oD_RKtwGpoUrRHYGnKVT-1784" value="Objet &quot;Attributs&quot;" style="rounded=1;whiteSpace=wrap;html=1;shadow=0;labelBackgroundColor=none;strokeColor=none;strokeWidth=3;fillColor=#dae8fc;fontFamily=Helvetica;fontSize=14;align=center;spacing=5;arcSize=7;perimeterSpacing=2;" vertex="1" parent="1">
          <mxGeometry x="445" y="1010" width="175" height="30" as="geometry" />
        </mxCell>
        <mxCell id="oD_RKtwGpoUrRHYGnKVT-1785" value="Objet &quot;WebApplications&quot;" style="rounded=1;whiteSpace=wrap;html=1;shadow=0;labelBackgroundColor=none;strokeColor=none;strokeWidth=3;fillColor=#e1d5e7;fontFamily=Helvetica;fontSize=14;align=center;spacing=5;arcSize=7;perimeterSpacing=2;" vertex="1" parent="1">
          <mxGeometry x="445" y="1040" width="175" height="30" as="geometry" />
        </mxCell>
        <mxCell id="oD_RKtwGpoUrRHYGnKVT-1787" value="Référence" style="edgeStyle=orthogonalEdgeStyle;rounded=0;orthogonalLoop=1;jettySize=auto;html=1;entryX=0;entryY=0.5;entryDx=0;entryDy=0;exitX=0;exitY=0.75;exitDx=0;exitDy=0;" edge="1" parent="1" source="oD_RKtwGpoUrRHYGnKVT-1786" target="oD_RKtwGpoUrRHYGnKVT-1783">
          <mxGeometry relative="1" as="geometry">
            <Array as="points">
              <mxPoint x="370" y="1093" />
              <mxPoint x="370" y="995" />
            </Array>
          </mxGeometry>
        </mxCell>
        <mxCell id="oD_RKtwGpoUrRHYGnKVT-1788" value="Référence" style="edgeStyle=orthogonalEdgeStyle;rounded=0;orthogonalLoop=1;jettySize=auto;html=1;exitX=0;exitY=0.25;exitDx=0;exitDy=0;entryX=0;entryY=0.5;entryDx=0;entryDy=0;" edge="1" parent="1" source="oD_RKtwGpoUrRHYGnKVT-1786" target="oD_RKtwGpoUrRHYGnKVT-1784">
          <mxGeometry relative="1" as="geometry">
            <Array as="points">
              <mxPoint x="420" y="1077" />
              <mxPoint x="420" y="1025" />
            </Array>
          </mxGeometry>
        </mxCell>
        <mxCell id="oD_RKtwGpoUrRHYGnKVT-1786" value="Objet &quot;Access&quot;" style="rounded=1;whiteSpace=wrap;html=1;shadow=0;labelBackgroundColor=none;strokeColor=none;strokeWidth=3;fillColor=#e1d5e7;fontFamily=Helvetica;fontSize=14;align=center;spacing=5;arcSize=7;perimeterSpacing=2;" vertex="1" parent="1">
          <mxGeometry x="470" y="1070" width="175" height="30" as="geometry" />
        </mxCell>
        <mxCell id="oD_RKtwGpoUrRHYGnKVT-1790" value="Importe" style="edgeStyle=orthogonalEdgeStyle;rounded=0;orthogonalLoop=1;jettySize=auto;html=1;exitX=1;exitY=0.25;exitDx=0;exitDy=0;entryX=1;entryY=0.75;entryDx=0;entryDy=0;" edge="1" parent="1" source="oD_RKtwGpoUrRHYGnKVT-1789" target="oD_RKtwGpoUrRHYGnKVT-1785">
          <mxGeometry relative="1" as="geometry">
            <Array as="points">
              <mxPoint x="680" y="1127" />
              <mxPoint x="680" y="1064" />
              <mxPoint x="622" y="1064" />
            </Array>
          </mxGeometry>
        </mxCell>
        <mxCell id="oD_RKtwGpoUrRHYGnKVT-1789" value="Objet &quot;Federation&quot;" style="rounded=1;whiteSpace=wrap;html=1;shadow=0;labelBackgroundColor=none;strokeColor=none;strokeWidth=3;fillColor=#f8cecc;fontFamily=Helvetica;fontSize=14;align=center;spacing=5;arcSize=7;perimeterSpacing=2;" vertex="1" parent="1">
          <mxGeometry x="445" y="1120" width="175" height="30" as="geometry" />
        </mxCell>
        <mxCell id="oD_RKtwGpoUrRHYGnKVT-1793" value="Objet &quot;Serveur&quot;" style="rounded=1;whiteSpace=wrap;html=1;shadow=0;labelBackgroundColor=none;strokeColor=none;strokeWidth=3;fillColor=#f8cecc;fontFamily=Helvetica;fontSize=14;align=center;spacing=5;arcSize=7;perimeterSpacing=2;" vertex="1" parent="1">
          <mxGeometry x="445" y="950" width="175" height="30" as="geometry" />
        </mxCell>
        <mxCell id="oD_RKtwGpoUrRHYGnKVT-1794" value="WAYF&amp;nbsp; dynamique" style="rounded=1;whiteSpace=wrap;html=1;shadow=0;labelBackgroundColor=none;strokeColor=none;strokeWidth=3;fillColor=#2F5B7C;fontFamily=Helvetica;fontSize=16;fontColor=#FFFFFF;align=center;fontStyle=1;spacing=5;arcSize=7;perimeterSpacing=2;" vertex="1" parent="1">
          <mxGeometry x="990" y="1240" width="150" height="70" as="geometry" />
        </mxCell>
        <mxCell id="oD_RKtwGpoUrRHYGnKVT-1798" value="alimente" style="edgeStyle=orthogonalEdgeStyle;rounded=0;orthogonalLoop=1;jettySize=auto;html=1;exitX=0.75;exitY=1;exitDx=0;exitDy=0;entryX=0;entryY=0.5;entryDx=0;entryDy=0;" edge="1" parent="1" source="oD_RKtwGpoUrRHYGnKVT-1795" target="oD_RKtwGpoUrRHYGnKVT-1794">
          <mxGeometry relative="1" as="geometry">
            <Array as="points">
              <mxPoint x="577" y="1280" />
              <mxPoint x="988" y="1280" />
            </Array>
          </mxGeometry>
        </mxCell>
        <mxCell id="oD_RKtwGpoUrRHYGnKVT-1795" value="Objet &quot;FederationLocal&quot;" style="rounded=1;whiteSpace=wrap;html=1;shadow=0;labelBackgroundColor=none;strokeColor=none;strokeWidth=3;fillColor=#f8cecc;fontFamily=Helvetica;fontSize=14;align=center;spacing=5;arcSize=7;perimeterSpacing=2;" vertex="1" parent="1">
          <mxGeometry x="445" y="1150" width="175" height="30" as="geometry" />
        </mxCell>
        <mxCell id="oD_RKtwGpoUrRHYGnKVT-1796" value="Référence" style="edgeStyle=orthogonalEdgeStyle;rounded=0;orthogonalLoop=1;jettySize=auto;html=1;exitX=1;exitY=0.5;exitDx=0;exitDy=0;entryX=0.984;entryY=0.388;entryDx=0;entryDy=0;entryPerimeter=0;" edge="1" parent="1" source="oD_RKtwGpoUrRHYGnKVT-1795" target="oD_RKtwGpoUrRHYGnKVT-1785">
          <mxGeometry x="-0.565" y="5" relative="1" as="geometry">
            <Array as="points">
              <mxPoint x="720" y="1165" />
              <mxPoint x="720" y="1051" />
            </Array>
            <mxPoint as="offset" />
          </mxGeometry>
        </mxCell>
        <mxCell id="oD_RKtwGpoUrRHYGnKVT-1799" value="TEST-SP" style="rounded=1;whiteSpace=wrap;html=1;shadow=0;labelBackgroundColor=none;strokeColor=none;strokeWidth=3;fillColor=#2F5B7C;fontFamily=Helvetica;fontSize=16;fontColor=#FFFFFF;align=center;fontStyle=1;spacing=5;arcSize=7;perimeterSpacing=2;" vertex="1" parent="1">
          <mxGeometry x="990" y="1150" width="150" height="70" as="geometry" />
        </mxCell>
        <mxCell id="oD_RKtwGpoUrRHYGnKVT-1801" value="Format PIVOT" style="ellipse;whiteSpace=wrap;html=1;" vertex="1" parent="1">
          <mxGeometry x="900" y="980" width="90" height="30" as="geometry" />
        </mxCell>
      </root>
    </mxGraphModel>
  </diagram>
</mxfile>
